<svg width="29" height="32" viewBox="0 0 29 32" fill="none" xmlns="http://www.w3.org/2000/svg">
<path d="M11.5378 22.1546H9.22957V24.6151H6.92348V27.0773V29.5379V32H9.22957V29.5379H11.5378V27.0773H13.847V24.6151V22.1546V19.6924H11.5378V22.1546Z" fill="#BDDAEB"/>
<path d="M20.7694 22.1546H18.4612V19.6924H16.153V22.1546V24.6151V27.0773H18.4612V29.5379H20.7694V32H23.0765V29.5379V27.0773V24.6151H20.7694V22.1546Z" fill="#BDDAEB"/>
<path d="M11.5378 2.46213H9.22957V0H6.92348V2.46213V4.92274V7.38488H9.22957V9.84548H11.5378V12.3076H13.847V9.84548V7.38488V4.92274H11.5378V2.46213Z" fill="#BDDAEB"/>
<path d="M20.7694 0V2.46213H18.4612V4.92274H16.153V7.38488V9.84548V12.3076H18.4612V9.84548H20.7694V7.38488H23.0765V4.92274V2.46213V0H20.7694Z" fill="#BDDAEB"/>
<path d="M27.6929 19.6923H25.3847V17.2301H23.0765H20.7694H18.4612V19.6923H20.7694V22.1529H23.0765V24.615H25.3847H27.6929H30V22.1529H27.6929V19.6923Z" fill="#BDDAEB"/>
<path d="M27.6929 7.38472H25.3847H23.0765V9.84533H20.7694V12.3075H18.4612V14.7696H20.7694H23.0765H25.3847V12.3075H27.6929V9.84533H30V7.38472H27.6929Z" fill="#BDDAEB"/>
<path d="M6.92347 17.2301H4.61531V19.6923H2.30818V22.1544H0V24.615H2.30818H4.61531H6.92347V22.1544H9.22957V19.6923H11.5388V17.2301H9.22957H6.92347Z" fill="#BDDAEB"/>
<path d="M9.22957 9.84533H6.92347V7.38472H4.61531H2.30818H0V9.84533H2.30818V12.3075H4.61531V14.7696H6.92347H9.22957H11.5388V12.3075H9.22957V9.84533Z" fill="#BDDAEB"/>
<path d="M16.1551 14.7697H13.847V17.2318H16.1551V14.7697Z" fill="#BDDAEB"/>
<path d="M4.61633 2.46202H2.30817V4.92416H4.61633V2.46202Z" fill="#BDDAEB"/>
<path d="M27.6929 2.46202H25.3847V4.92416H27.6929V2.46202Z" fill="#BDDAEB"/>
<path d="M4.61633 26.9979H2.30817V29.4601H4.61633V26.9979Z" fill="#BDDAEB"/>
<path d="M27.6929 26.9979H25.3847V29.4601H27.6929V26.9979Z" fill="#BDDAEB"/>
</svg>
