<svg width="153" height="41" viewBox="0 0 153 41" fill="none" xmlns="http://www.w3.org/2000/svg">
<path d="M41.6975 26.343V14.4262H48.2271C50.5076 14.4262 51.5944 15.9631 51.5944 17.4637C51.5944 18.9471 50.7128 19.9469 49.6262 20.1974C50.8533 20.3942 51.8198 21.608 51.8198 23.1087C51.8198 24.8425 50.698 26.343 48.4341 26.343H41.6975ZM48.5708 17.999C48.5708 17.4274 48.1569 17.0164 47.5525 17.0164H44.6676V18.9987H47.5525C48.1569 19.0007 48.5708 18.5896 48.5708 17.999ZM48.7963 22.6804C48.7963 22.0917 48.3823 21.608 47.6559 21.608H44.6676V23.7509H47.6559C48.3637 23.7528 48.7963 23.3228 48.7963 22.6804Z" fill="#BDDAEB"/>
<path d="M53.718 20.3942C53.718 16.7143 56.4126 14.2313 59.9535 14.2313C62.735 14.2313 64.2191 15.8561 64.9806 17.4294L62.4245 18.6796C62.0439 17.7332 61.0606 16.9456 59.9554 16.9456C58.0722 16.9456 56.7433 18.4463 56.7433 20.3942C56.7433 22.3421 58.0739 23.8428 59.9554 23.8428C61.0606 23.8428 62.0456 23.0571 62.4245 22.109L64.9806 23.359C64.2375 24.896 62.735 26.5572 59.9535 26.5572C56.4126 26.5572 53.718 24.0568 53.718 20.3942Z" fill="#BDDAEB"/>
<path d="M67.1226 26.343V14.4262H75.5686V17.1062H70.0925V18.9643H75.4466V21.6444H70.0925V23.663H75.5686V26.343H67.1226Z" fill="#BDDAEB"/>
<path d="M77.5721 20.3942C77.5721 16.768 80.2149 14.2313 83.7374 14.2313C87.2618 14.2313 89.8862 16.768 89.8862 20.3942C89.8862 24.0205 87.2601 26.5572 83.7374 26.5572C80.2149 26.5572 77.5721 24.0205 77.5721 20.3942ZM86.8645 20.3942C86.8645 18.4463 85.6373 16.9456 83.7374 16.9456C81.8209 16.9456 80.5937 18.4463 80.5937 20.3942C80.5937 22.323 81.8209 23.8428 83.7374 23.8428C85.6392 23.8408 86.8645 22.323 86.8645 20.3942Z" fill="#BDDAEB"/>
<path d="M91.6679 20.3942C91.6679 16.7143 94.3625 14.2313 97.9035 14.2313C100.685 14.2313 102.169 15.8561 102.93 17.4294L100.375 18.6796C99.9938 17.7332 99.0106 16.9456 97.9054 16.9456C96.0221 16.9456 94.6934 18.4463 94.6934 20.3942C94.6934 22.3421 96.024 23.8428 97.9054 23.8428C99.0106 23.8428 99.9956 23.0571 100.375 22.109L102.93 23.359C102.188 24.896 100.685 26.5572 97.9035 26.5572C94.3625 26.5572 91.6679 24.0568 91.6679 20.3942Z" fill="#BDDAEB"/>
<path d="M105.071 26.343V14.4262H111.6C113.881 14.4262 114.968 15.9631 114.968 17.4637C114.968 18.9471 114.086 19.9469 112.999 20.1974C114.226 20.3942 115.193 21.608 115.193 23.1087C115.193 24.8425 114.071 26.343 111.807 26.343H105.071ZM111.946 17.999C111.946 17.4274 111.532 17.0164 110.928 17.0164H108.043V18.9987H110.928C111.532 19.0007 111.946 18.5896 111.946 17.999ZM112.169 22.6804C112.169 22.0917 111.755 21.608 111.029 21.608H108.043V23.7509H111.031C111.739 23.7528 112.169 23.3228 112.169 22.6804Z" fill="#BDDAEB"/>
<path d="M117.681 26.343V14.4262H120.651V26.343H117.681Z" fill="#BDDAEB"/>
<path d="M126.162 26.343V17.1062H122.931V14.4262H132.344V17.1062H129.132V26.343H126.162Z" fill="#BDDAEB"/>
<path d="M142.017 26.343L141.448 24.6284H136.905L136.336 26.343H132.969L137.305 14.4262H141.036L145.388 26.343H142.017ZM139.168 17.4637L137.7 21.9483H140.637L139.168 17.4637Z" fill="#BDDAEB"/>
<path d="M14.9658 27.876H11.9903V30.9517H9.01662V34.0294V37.1051V40.1828H11.9903V37.1051H14.9658V34.0294H17.9413V30.9517V27.876V24.7983H14.9658V27.876Z" fill="#BDDAEB"/>
<path d="M26.8661 27.876H23.8906V24.7983H20.915V27.876V30.9517V34.0294H23.8906V37.1051H26.8661V40.1828H29.8398V37.1051V34.0294V30.9517H26.8661V27.876Z" fill="#BDDAEB"/>
<path d="M14.9658 3.26048H11.9903V0.18281H9.01662V3.26048V6.33621V9.41388H11.9903V12.4896H14.9658V15.5673H17.9413V12.4896V9.41388V6.33621H14.9658V3.26048Z" fill="#BDDAEB"/>
<path d="M26.8661 0.18281V3.26048H23.8906V6.33621H20.915V9.41388V12.4896V15.5673H23.8906V12.4896H26.8661V9.41388H29.8398V6.33621V3.26048V0.18281H26.8661Z" fill="#BDDAEB"/>
<path d="M35.7908 24.7982H32.8152V21.7204H29.8398H26.866H23.8906V24.7982H26.866V27.8739H29.8398V30.9516H32.8152H35.7908H38.7645V27.8739H35.7908V24.7982Z" fill="#BDDAEB"/>
<path d="M35.7908 9.41374H32.8152H29.8398V12.4895H26.866V15.5671H23.8906V18.6448H26.866H29.8398H32.8152V15.5671H35.7908V12.4895H38.7645V9.41374H35.7908Z" fill="#BDDAEB"/>
<path d="M9.01661 21.7204H6.0411V24.7982H3.06742V27.8759H0.0918884V30.9516H3.06742H6.0411H9.01661V27.8759H11.9903V24.7982H14.9658V21.7204H11.9903H9.01661Z" fill="#BDDAEB"/>
<path d="M11.9903 12.4895H9.01661V9.41374H6.0411H3.06742H0.0918884V12.4895H3.06742V15.5671H6.0411V18.6448H9.01661H11.9903H14.9658V15.5671H11.9903V12.4895Z" fill="#BDDAEB"/>
<path d="M20.9169 18.6449H17.9414V21.7226H20.9169V18.6449Z" fill="#BDDAEB"/>
<path d="M6.04293 3.26034H3.0674V6.33801H6.04293V3.26034Z" fill="#BDDAEB"/>
<path d="M35.7908 3.26034H32.8154V6.33801H35.7908V3.26034Z" fill="#BDDAEB"/>
<path d="M6.04293 33.9302H3.0674V37.0079H6.04293V33.9302Z" fill="#BDDAEB"/>
<path d="M35.7908 33.9302H32.8154V37.0079H35.7908V33.9302Z" fill="#BDDAEB"/>
<path d="M147.057 13.9597C146.545 13.6481 146.138 13.2275 145.837 12.698C145.536 12.1685 145.385 11.5893 145.385 10.9586C145.385 10.3296 145.534 9.7485 145.837 9.21898C146.138 8.68946 146.545 8.26891 147.057 7.95732C147.57 7.64573 148.129 7.49084 148.738 7.49084C149.346 7.49084 149.909 7.64766 150.421 7.95732C150.932 8.26891 151.339 8.68946 151.64 9.21898C151.941 9.7485 152.092 10.3296 152.092 10.9586C152.092 11.5874 151.94 12.1685 151.64 12.698C151.339 13.2275 150.932 13.6481 150.421 13.9597C149.909 14.2713 149.346 14.4281 148.738 14.4281C148.13 14.4281 147.571 14.2713 147.057 13.9597ZM150.019 13.2754C150.408 13.0346 150.714 12.7096 150.942 12.2966C151.169 11.8856 151.282 11.4383 151.282 10.9566C151.282 10.4748 151.169 10.0275 150.942 9.61664C150.714 9.2056 150.408 8.8787 150.019 8.63788C149.632 8.39705 149.205 8.27649 148.738 8.27649C148.273 8.27649 147.847 8.39705 147.458 8.63788C147.07 8.8787 146.764 9.2056 146.536 9.61664C146.309 10.0275 146.196 10.4748 146.196 10.9566C146.196 11.4383 146.309 11.8856 146.536 12.2966C146.764 12.7077 147.07 13.0346 147.458 13.2754C147.847 13.5162 148.273 13.6367 148.738 13.6367C149.205 13.6367 149.632 13.5162 150.019 13.2754ZM147.602 12.3942C147.323 12.1188 147.17 11.7557 147.146 11.3045L147.136 10.9489L147.146 10.5935C147.17 10.1442 147.323 9.78105 147.602 9.50381C147.882 9.2285 148.26 9.08905 148.738 9.08905C149.087 9.08905 149.381 9.14822 149.624 9.2667C149.866 9.38532 150.047 9.53443 150.17 9.71401C150.289 9.89374 150.354 10.0773 150.359 10.2627V10.2819C150.359 10.3391 150.339 10.387 150.299 10.4213C150.258 10.4558 150.21 10.4748 150.155 10.4748H149.502C149.439 10.4748 149.391 10.4558 149.359 10.4176C149.322 10.3793 149.293 10.3315 149.27 10.2722C149.22 10.1576 149.157 10.0735 149.079 10.0219C149.001 9.97029 148.889 9.94533 148.738 9.94533C148.539 9.94533 148.405 10.0085 148.328 10.1328C148.254 10.2588 148.21 10.4194 148.198 10.6202L148.188 10.9471L148.198 11.2739C148.21 11.4728 148.253 11.6353 148.328 11.7613C148.402 11.8856 148.539 11.9488 148.738 11.9488C148.889 11.9488 149.001 11.9238 149.079 11.8722C149.157 11.8206 149.22 11.7365 149.27 11.6219C149.293 11.5645 149.322 11.5166 149.359 11.4765C149.391 11.4383 149.441 11.4193 149.502 11.4193H150.155C150.217 11.4193 150.268 11.4383 150.308 11.4765C150.349 11.5148 150.365 11.5664 150.359 11.6314C150.354 11.8187 150.289 12.0004 150.17 12.1801C150.047 12.3597 149.866 12.5088 149.624 12.6274C149.381 12.7459 149.087 12.8051 148.738 12.8051C148.26 12.8089 147.883 12.6713 147.602 12.3942Z" fill="#BDDAEB"/>
</svg>
